<?xml version="1.0" encoding="UTF-8" standalone="no"?>
<svg
   width="700"
   height="700"
   fill="none"
   version="1.1"
   viewBox="0 0 700 700"
   id="svg4"
   sodipodi:docname="logo_remote.svg"
   inkscape:version="1.3.2 (091e20ef0f, 2023-11-25, custom)"
   xmlns:inkscape="http://www.inkscape.org/namespaces/inkscape"
   xmlns:sodipodi="http://sodipodi.sourceforge.net/DTD/sodipodi-0.dtd"
   xmlns="http://www.w3.org/2000/svg"
   xmlns:svg="http://www.w3.org/2000/svg">
  <defs
     id="defs4" />
  <sodipodi:namedview
     id="namedview4"
     pagecolor="#ffffff"
     bordercolor="#000000"
     borderopacity="0.25"
     inkscape:showpageshadow="2"
     inkscape:pageopacity="0.0"
     inkscape:pagecheckerboard="0"
     inkscape:deskcolor="#d1d1d1"
     inkscape:zoom="0.9331855"
     inkscape:cx="457.57248"
     inkscape:cy="383.09639"
     inkscape:window-width="1920"
     inkscape:window-height="1128"
     inkscape:window-x="0"
     inkscape:window-y="0"
     inkscape:window-maximized="1"
     inkscape:current-layer="svg4" />
  <g
     stroke-width="3.1414"
     id="g4"
     transform="matrix(0.65291277,0,0,0.65291277,121.48036,214.377)">
    <rect
       x="50"
       y="82.093819"
       width="600"
       height="600"
       rx="100.52"
       fill="#40dba4"
       id="rect1" />
    <rect
       x="50.000004"
       y="-266.6543"
       width="600"
       height="348.90753"
       rx="100.52"
       fill="#40dba4"
       id="rect1-9"
       style="fill:#003b7a;fill-opacity:1;stroke-width:2.39554" />
    <path
       d="m 164.1,301.24385 c 16.992,-12.647 38.205,-20.29 60.961,-20.29 9.4838,0 18.672,1.3068 27.386,3.7319 l 99.836,-79.954 v -53.94 z"
       fill="#003b7a"
       id="path1" />
    <path
       d="m 540.47,301.24385 c -16.992,-12.647 -38.205,-20.29 -60.961,-20.29 -9.4838,0 -18.672,1.3068 -27.386,3.7319 l -99.836,-79.954 v -53.94 z"
       fill="#003b7a"
       id="path2" />
    <path
       d="m 581.3,382.73385 c 0,-56.218 -45.575,-101.78 -101.78,-101.78 -56.215,0 -101.78,45.572 -101.78,101.78 0,46.718 31.483,86.095 74.391,98.058 l -99.848,79.945 v 53.937 l 193.52,-154.58 -0.0628,-0.0753 c 21.76,-18.66 35.554,-46.357 35.554,-77.281 z m -161.16,0 c 0,-32.739 26.639,-59.378 59.378,-59.378 32.739,0 59.381,26.639 59.381,59.378 0,32.739 -26.642,59.378 -59.381,59.378 -32.739,0 -59.378,-26.639 -59.378,-59.378 z"
       fill="#003b7a"
       id="path3" />
    <path
       d="m 252.45,480.79385 c 42.908,-11.962 74.391,-51.327 74.391,-98.058 0,-56.218 -45.572,-101.78 -101.78,-101.78 -56.218,0 -101.78,45.572 -101.78,101.78 0,30.924 13.794,58.621 35.554,77.281 l -0.0628,0.0753 193.51,154.6 v -53.937 z m -27.399,-157.42 c 32.739,0 59.378,26.639 59.378,59.378 0,32.739 -26.639,59.378 -59.378,59.378 -32.739,0 -59.381,-26.639 -59.381,-59.378 0,-32.739 26.642,-59.378 59.381,-59.378 z"
       fill="#003b7a"
       id="path4" />
  </g>
  <path
     d="m 305.93578,242.95332 c -1.66544,-0.82691 -16.32969,-15.49088 -17.12439,-17.12486 -0.52631,-1.08295 -0.59186,-1.73231 -0.50383,-4.99709 0.0843,-3.09658 0.21258,-3.96714 0.73982,-4.98163 0.7417,-1.42693 6.54876,-7.11748 10.69477,-10.48068 9.11669,-7.39506 21.0993,-13.21916 32.54147,-15.81678 6.31426,-1.43339 10.06423,-1.81838 17.71682,-1.81838 7.65259,0 11.40256,0.3849 17.71672,1.81838 11.44123,2.59734 23.41608,8.41741 32.54307,15.81678 4.68262,3.79623 10.17717,9.27027 10.75526,10.71517 0.64243,1.6058 0.92618,7.75982 0.42797,9.30549 -0.47948,1.48826 -15.56364,16.6981 -17.43137,17.57597 -1.69158,0.79507 -4.62193,0.81474 -6.32287,0.0468 -0.72391,-0.32871 -2.02787,-1.45998 -3.18003,-2.75879 -2.67395,-3.01446 -6.85779,-6.44022 -10.66208,-8.73002 -16.93306,-10.19206 -38.39151,-8.50329 -53.63881,4.2213 -1.52048,1.26904 -3.6434,3.29784 -4.71746,4.50872 -1.15216,1.29881 -2.45584,2.4299 -3.17984,2.75879 -1.69082,0.76792 -4.77092,0.7417 -6.37569,-0.0562 z M 261.87094,199.1035 c -1.58631,-0.80444 -17.15914,-16.53001 -17.55387,-17.72618 -0.18167,-0.54972 -0.27907,-2.55754 -0.22288,-4.59412 0.0749,-2.94693 0.21633,-3.84278 0.73046,-4.8332 1.22165,-2.35011 12.36555,-12.68723 19.64775,-18.22533 11.61645,-8.83424 27.32666,-17.02082 41.38575,-21.56605 31.63102,-10.22614 66.12742,-9.1342 96.68701,3.06053 11.34113,4.52566 23.77129,11.49958 32.98359,18.50552 7.28231,5.5381 18.42621,15.87522 19.64785,18.22533 0.51413,0.99042 0.64992,1.88627 0.73046,4.8332 0.0562,2.04145 -0.0468,4.04403 -0.22382,4.59646 -0.4261,1.29301 -16.31508,17.23106 -17.79286,17.84867 -1.37691,0.575 -4.29463,0.55627 -5.77849,-0.0375 -0.79601,-0.3184 -2.19222,-1.55531 -4.25417,-3.7687 -10.84676,-11.64305 -26.57494,-21.60772 -42.80537,-27.11979 -11.80346,-4.00862 -22.21859,-5.70319 -35.05172,-5.70319 -12.83314,0 -23.24827,1.69457 -35.05173,5.70319 -16.23052,5.51207 -31.95871,15.47674 -42.80546,27.11979 -2.06195,2.21339 -3.45807,3.4503 -4.25417,3.7687 -1.59924,0.63962 -4.67176,0.59467 -6.01824,-0.0843 z m -44.36761,-44.55154 c -1.7576,-0.79976 -16.60717,-15.837 -17.07532,-17.29071 -0.2079,-0.64618 -0.30717,-2.52374 -0.24724,-4.69423 0.0749,-2.9444 0.21633,-3.84287 0.72953,-4.82889 0.9318,-1.79113 10.51486,-11.01121 17.65369,-16.98533 29.36268,-24.572361 64.54195,-40.316751 102.06067,-45.677101 11.49115,-1.64175 14.63914,-1.83888 29.37653,-1.83888 14.73748,0 17.88538,0.1976 29.37653,1.83888 37.51862,5.36035 72.69799,21.10474 102.06057,45.677101 7.13883,5.97412 16.7217,15.1942 17.65369,16.98533 0.5132,0.98602 0.64899,1.88449 0.72952,4.82889 0.0562,2.17049 -0.0468,4.04815 -0.24723,4.69423 -0.49914,1.55026 -15.34113,16.50893 -17.17608,17.31122 -1.75816,0.76886 -4.62456,0.752 -6.36202,-0.0375 -0.84097,-0.38115 -3.08076,-2.32342 -6.20853,-5.3817 -13.29894,-13.0032 -26.40618,-22.42809 -42.59887,-30.63124 -20.03302,-10.14851 -39.87341,-15.74335 -63.59862,-17.93454 -8.85766,-0.81755 -24.76144,-0.44109 -34.97925,0.82879 -19.51683,2.42653 -38.17631,8.13881 -55.87589,17.10519 -16.19269,8.20306 -29.29993,17.62794 -42.59897,30.63124 -3.12777,3.05819 -5.3684,5.00046 -6.20843,5.38161 -1.70712,0.77447 -4.77898,0.78196 -6.46288,0.0187 z"
     id="path26127"
     style="fill:#3fd9a3;fill-opacity:1;stroke:none;stroke-width:9.965;stroke-dasharray:none"
     inkscape:connector-curvature="0"
     sodipodi:nodetypes="ccccccscsscsccsccccccccccsscccccccssccscccccccsscccccccccccccccc" />
</svg>
