<?xml version="1.0" encoding="UTF-8"?>
<svg width="800px" height="800px" fill="#000000" version="1.1" viewBox="0 0 43.329 43.329" xml:space="preserve" xmlns="http://www.w3.org/2000/svg">
<g fill="#fff">
	<g fill="#fff">
		<path d="m18.689 30.359c1.645 1.639 4.305 1.639 5.951 0l14.082-14.014c0.91-0.906 1.186-2.287 0.695-3.474s-1.646-1.976-2.932-1.976h-5.879v-7.699c0-1.751-1.436-3.196-3.187-3.196h-11.511c-1.752 0-3.208 1.444-3.208 3.196v7.698h-5.858c-1.284 0-2.441 0.79-2.931 1.976-0.49 1.187-0.216 2.561 0.694 3.466l14.084 14.023z"/>
		<path d="m42.657 37.547c0-1.75-1.419-3.171-3.172-3.171h-35.643c-1.751 0-3.171 1.419-3.171 3.171v2.611c0 1.751 1.42 3.171 3.171 3.171h35.645c1.751 0 3.171-1.42 3.171-3.171l-1e-3 -2.611z"/>
	</g>
</g>
</svg>
