<?xml version="1.0" encoding="UTF-8"?>
<svg width="800px" height="800px" enable-background="new 0 0 40 40" version="1.1" viewBox="0 0 40 40" xml:space="preserve" xmlns="http://www.w3.org/2000/svg">

<g transform="matrix(.37102 0 0 .37102 -5.1311 -5.1291)" fill="#fff"><path d="m58.471 28.042h18.53v14.898h-18.53z" color="#000000" stroke-width="0"/><path d="m58.471 28.042h18.53v14.898h-18.53z" color="#000000" stroke-linecap="square"/><path d="m58.572 55.326h18.323c0.05487 0 0.09905 0.04418 0.09905 0.09905v51.895c0 0.0549-0.04418 0.099-0.09905 0.099h-18.323c-0.05487 0-0.09905-0.0442-0.09905-0.099v-51.895c0-0.05487 0.04418-0.09905 0.09905-0.09905z" color="#000000" stroke-width="0"/><path d="m58.572 55.326h18.323c0.05487 0 0.09905 0.04418 0.09905 0.09905v51.895c0 0.0549-0.04418 0.099-0.09905 0.099h-18.323c-0.05487 0-0.09905-0.0442-0.09905-0.099v-51.895c0-0.05487 0.04418-0.09905 0.09905-0.09905z" color="#000000" stroke-linecap="square"/></g></svg>
