<?xml version="1.0" encoding="UTF-8"?>
<svg width="700" height="700" fill="none" version="1.1" viewBox="0 0 700 700" xmlns="http://www.w3.org/2000/svg">
 <g stroke-width="3.141">
  <g fill="#003c7a" aria-label="PreviewQt">
   <path d="m156.89 455.88q11.592 0 16.884 5.04 5.376 4.956 5.376 13.692 0 5.208-2.184 9.828-2.184 4.536-7.308 7.308-5.04 2.772-13.776 2.772h-5.46v21.336h-12.684v-59.976zm-0.672 10.416h-5.796v17.808h4.2q5.376 0 8.484-2.1 3.192-2.184 3.192-6.972 0-8.736-10.08-8.736zm58.884 2.856q0.924 0 2.184 0.084t2.016 0.252l-0.924 11.76q-0.588-0.168-1.764-0.252-1.092-0.168-1.932-0.168-3.192 0-6.132 1.176-2.94 1.092-4.788 3.612-1.764 2.52-1.764 6.888v23.352h-12.516v-45.864h9.492l1.848 7.728h0.588q2.016-3.528 5.544-6.048t8.148-2.52zm29.736 0q9.492 0 15.036 5.46 5.544 5.376 5.544 15.372v6.048h-29.568q0.168 5.292 3.108 8.316 3.024 3.024 8.316 3.024 4.452 0 8.064-0.84 3.612-0.924 7.476-2.772v9.66q-3.36 1.68-7.14 2.436-3.696 0.84-8.988 0.84-6.888 0-12.18-2.52-5.292-2.604-8.316-7.812t-3.024-13.104q0-8.064 2.688-13.356 2.772-5.376 7.644-8.064t11.34-2.688zm0.084 8.904q-3.612 0-6.048 2.352-2.352 2.352-2.772 7.308h17.556q-0.084-4.2-2.184-6.888-2.1-2.772-6.552-2.772zm39.9 37.8-17.472-45.864h13.104l8.82 26.124q0.756 2.352 1.176 4.872 0.504 2.52 0.588 4.536h0.336q0.252-4.536 1.848-9.408l8.82-26.124h13.104l-17.472 45.864zm43.176-63.84q2.772 0 4.788 1.344 2.016 1.26 2.016 4.788 0 3.444-2.016 4.788t-4.788 1.344q-2.856 0-4.872-1.344-1.932-1.344-1.932-4.788 0-3.528 1.932-4.788 2.016-1.344 4.872-1.344zm6.216 17.976v45.864h-12.516v-45.864zm32.004-0.84q9.492 0 15.036 5.46 5.544 5.376 5.544 15.372v6.048h-29.568q0.168 5.292 3.108 8.316 3.024 3.024 8.316 3.024 4.452 0 8.064-0.84 3.612-0.924 7.476-2.772v9.66q-3.36 1.68-7.14 2.436-3.696 0.84-8.988 0.84-6.888 0-12.18-2.52-5.292-2.604-8.316-7.812t-3.024-13.104q0-8.064 2.688-13.356 2.772-5.376 7.644-8.064t11.34-2.688zm0.084 8.904q-3.612 0-6.048 2.352-2.352 2.352-2.772 7.308h17.556q-0.084-4.2-2.184-6.888-2.1-2.772-6.552-2.772zm63.168 21.756q-0.336-1.428-1.008-4.2-0.588-2.856-1.344-6.048-0.756-3.276-1.428-5.964-0.672-2.772-0.924-4.032h-0.336q-0.252 1.26-0.924 4.032-0.588 2.688-1.344 5.964-0.756 3.192-1.428 6.048t-1.008 4.368l-3.696 15.876h-13.44l-13.02-45.864h12.432l5.292 20.328q0.588 2.1 1.008 5.04 0.504 2.94 0.924 5.712 0.42 2.688 0.588 4.284h0.336q0.084-1.176 0.336-3.108 0.252-2.016 0.588-4.116 0.42-2.1 0.672-3.78 0.336-1.764 0.504-2.352l5.628-22.008h13.776l5.376 22.008q0.336 1.176 0.756 3.78 0.504 2.604 0.84 5.292 0.42 2.688 0.42 4.284h0.336q0.168-1.428 0.588-4.116 0.42-2.772 0.924-5.796 0.588-3.024 1.176-5.124l5.46-20.328h12.264l-13.188 45.864h-13.608z"/>
   <path d="m522.63 485.78q0 10.08-3.612 17.472-3.612 7.308-11.172 10.752l14.448 16.128h-16.296l-11.004-13.44h-0.924q-9.744 0-16.128-3.864-6.3-3.864-9.408-10.836-3.024-6.972-3.024-16.296t3.024-16.212q3.108-6.888 9.408-10.668 6.384-3.864 16.212-3.864 9.744 0 16.044 3.864 6.3 3.78 9.324 10.752 3.108 6.888 3.108 16.212zm-43.764 0q0 9.408 3.612 14.868 3.612 5.376 11.592 5.376 8.148 0 11.676-5.376 3.528-5.46 3.528-14.868 0-9.492-3.528-14.868t-11.592-5.376-11.676 5.376-3.612 14.868zm74.508 20.916q2.1 0 4.032-0.42t3.864-1.008v9.324q-2.016 0.84-5.04 1.428-2.94 0.672-6.468 0.672-4.116 0-7.392-1.344-3.192-1.344-5.124-4.62-1.848-3.36-1.848-9.24v-22.092h-5.964v-5.292l6.888-4.2 3.612-9.66h7.98v9.744h12.852v9.408h-12.852v22.092q0 2.604 1.512 3.948 1.512 1.26 3.948 1.26z" fill="#3edaa3"/>
  </g>
  <text x="452.7836" y="392.35049" fill="#3fd9a3" font-family="sans-serif" font-size="80px" font-weight="bold" xml:space="preserve"><tspan x="452.7836" y="392.35049"/></text>
  <path d="m150.47 570.85h-9.36v32.448h-6.1013v-32.448h-6.5173v-2.8427l6.5173-2.08v-2.1493q0-7.2106 3.1893-10.331 3.1893-3.1893 8.8746-3.1893 2.2187 0 4.0213 0.416 1.872 0.34667 3.1893 0.832l-1.5946 4.784q-1.1093-0.34667-2.5653-0.69333-1.456-0.34667-2.9813-0.34667-3.0507 0-4.576 2.08-1.456 2.0107-1.456 6.3786v2.4266h9.36zm9.8453-18.651q1.3867 0 2.4266 0.97066 1.1093 0.90133 1.1093 2.912 0 1.9413-1.1093 2.912-1.04 0.97066-2.4266 0.97066-1.5253 0-2.5653-0.97066-1.04-0.97066-1.04-2.912 0-2.0107 1.04-2.912 1.04-0.97066 2.5653-0.97066zm2.9813 13.936v37.162h-6.1013v-37.162zm17.888 37.162h-6.1013v-52.693h6.1013zm26.138-37.856q4.784 0 8.1813 2.08 3.4666 2.08 5.2693 5.8933 1.872 3.744 1.872 8.8053v3.6746h-25.445q0.13867 6.3093 3.1893 9.6373 3.12 3.2586 8.6666 3.2586 3.536 0 6.24-0.62399 2.7733-0.69333 5.6853-1.9413v5.3386q-2.8426 1.248-5.616 1.8027-2.7733 0.624-6.5866 0.624-5.2693 0-9.36-2.1493-4.0213-2.1493-6.3093-6.3786-2.2186-4.2986-2.2186-10.469 0-6.1013 2.0106-10.469 2.08-4.368 5.7546-6.7253 3.744-2.3573 8.6666-2.3573zm-0.0693 4.992q-4.368 0-6.9333 2.8426-2.496 2.7733-2.9813 7.7653h18.928q-0.0693-4.7146-2.2187-7.6266-2.1493-2.9813-6.7946-2.9813zm60.528-4.992q6.864 0 11.024 4.784 4.2293 4.784 4.2293 14.421 0 9.4986-4.2293 14.421-4.16 4.9226-11.093 4.9226-4.2986 0-7.1413-1.5947-2.7733-1.664-4.368-3.8133h-0.416q0.13867 1.1787 0.27733 2.9813 0.13867 1.8027 0.13867 3.12v15.253h-6.1013v-53.802h4.992l0.832 5.0613h0.27733q1.664-2.4266 4.368-4.0906 2.704-1.664 7.2106-1.664zm-1.1093 5.1306q-5.6853 0-8.0426 3.1893-2.288 3.1893-2.4266 9.7066v1.1787q0 6.864 2.2187 10.608 2.288 3.6746 8.3893 3.6746 3.3973 0 5.5466-1.872 2.2186-1.872 3.2586-5.0613 1.1093-3.2586 1.1093-7.4186 0-6.3786-2.496-10.192-2.4267-3.8133-7.5573-3.8133zm43.402-5.1306q1.04 0 2.2187 0.13867 1.248 0.0693 2.1493 0.27733l-0.76266 5.616q-0.90133-0.208-2.0107-0.34666-1.04-0.13867-2.0107-0.13867-2.8426 0-5.3386 1.5947-2.496 1.5253-4.0213 4.368-1.456 2.7733-1.456 6.5173v19.829h-6.1013v-37.162h4.992l0.69333 6.7946h0.27733q1.8027-3.0507 4.6453-5.2693 2.8426-2.2187 6.7253-2.2187zm24.267 0q4.784 0 8.1813 2.08 3.4666 2.08 5.2693 5.8933 1.872 3.744 1.872 8.8053v3.6746h-25.445q0.13866 6.3093 3.1893 9.6373 3.12 3.2586 8.6666 3.2586 3.536 0 6.24-0.62399 2.7733-0.69333 5.6853-1.9413v5.3386q-2.8427 1.248-5.616 1.8027-2.7733 0.624-6.5866 0.624-5.2693 0-9.36-2.1493-4.0213-2.1493-6.3093-6.3786-2.2187-4.2986-2.2187-10.469 0-6.1013 2.0107-10.469 2.08-4.368 5.7546-6.7253 3.744-2.3573 8.6666-2.3573zm-0.0693 4.992q-4.368 0-6.9333 2.8426-2.496 2.7733-2.9813 7.7653h18.928q-0.0693-4.7146-2.2186-7.6266-2.1493-2.9813-6.7946-2.9813zm31.616 32.864-14.075-37.162h6.5173l7.904 21.909q0.55466 1.5253 1.1787 3.3973 0.62399 1.872 1.1093 3.6053 0.48534 1.664 0.69333 2.8427h0.27734q0.27733-1.1787 0.76266-2.912 0.55466-1.7333 1.1787-3.6053 0.69333-1.872 1.1787-3.328l7.904-21.909h6.5173l-14.144 37.162zm30.16-51.098q1.3867 0 2.4267 0.97066 1.1093 0.90133 1.1093 2.912 0 1.9413-1.1093 2.912-1.04 0.97066-2.4267 0.97066-1.5253 0-2.5653-0.97066-1.04-0.97066-1.04-2.912 0-2.0107 1.04-2.912 1.04-0.97066 2.5653-0.97066zm2.9813 13.936v37.162h-6.1013v-37.162zm26.139-0.69333q4.784 0 8.1813 2.08 3.4666 2.08 5.2693 5.8933 1.872 3.744 1.872 8.8053v3.6746h-25.445q0.13866 6.3093 3.1893 9.6373 3.12 3.2586 8.6666 3.2586 3.536 0 6.24-0.62399 2.7733-0.69333 5.6853-1.9413v5.3386q-2.8427 1.248-5.616 1.8027-2.7733 0.624-6.5866 0.624-5.2693 0-9.36-2.1493-4.0213-2.1493-6.3093-6.3786-2.2187-4.2986-2.2187-10.469 0-6.1013 2.0107-10.469 2.08-4.368 5.7546-6.7253 3.744-2.3573 8.6666-2.3573zm-0.0693 4.992q-4.368 0-6.9333 2.8426-2.496 2.7733-2.9813 7.7653h18.928q-0.0693-4.7146-2.2186-7.6266-2.1493-2.9813-6.7946-2.9813zm47.424 11.856q-0.90132-2.8426-1.5946-5.5466-0.624-2.7733-0.97067-4.2986h-0.27733q-0.27733 1.5253-0.90133 4.2986-0.62399 2.704-1.5947 5.616l-6.656 20.869h-6.9333l-10.192-37.162h6.3093l5.1306 19.829q0.76266 2.9813 1.456 6.032t0.97066 5.0613h0.27734q0.27733-1.1787 0.62399-2.912 0.416-1.7333 0.90133-3.6053 0.48533-1.9413 0.97066-3.4666l6.5866-20.939h6.656l6.3786 20.939q0.76267 2.3573 1.456 5.1306 0.76266 2.7733 1.04 4.784h0.27733q0.208-1.7333 0.90133-4.784 0.76267-3.0507 1.5947-6.24l5.2-19.829h6.24l-10.331 37.162h-7.1413zm44.858-16.848q4.784 0 8.1813 2.08 3.4666 2.08 5.2693 5.8933 1.872 3.744 1.872 8.8053v3.6746h-25.445q0.13866 6.3093 3.1893 9.6373 3.12 3.2586 8.6666 3.2586 3.536 0 6.24-0.62399 2.7733-0.69333 5.6853-1.9413v5.3386q-2.8427 1.248-5.616 1.8027-2.7733 0.624-6.5866 0.624-5.2693 0-9.36-2.1493-4.0213-2.1493-6.3093-6.3786-2.2187-4.2986-2.2187-10.469 0-6.1013 2.0107-10.469 2.08-4.368 5.7546-6.7253 3.744-2.3573 8.6666-2.3573zm-0.0693 4.992q-4.368 0-6.9333 2.8426-2.496 2.7733-2.9813 7.7653h18.928q-0.0693-4.7146-2.2186-7.6266-2.1493-2.9813-6.7946-2.9813zm42.154-4.992q1.04 0 2.2187 0.13867 1.248 0.0693 2.1493 0.27733l-0.76266 5.616q-0.90133-0.208-2.0107-0.34666-1.04-0.13867-2.0107-0.13867-2.8426 0-5.3386 1.5947-2.496 1.5253-4.0213 4.368-1.456 2.7733-1.456 6.5173v19.829h-6.1013v-37.162h4.992l0.69333 6.7946h0.27733q1.8027-3.0507 4.6453-5.2693 2.8426-2.2187 6.7253-2.2187z" fill="#00517a" aria-label="file previewer"/>
 </g>
 <rect x="215.36" y="79.836" width="258.17" height="258.17" rx="43.254" fill="#3edaa4" stroke-width="1.3517"/>
 <g fill="#003c7a" stroke-width="1.3517">
  <path d="m263.93 174.67c7.3114-5.4419 16.439-8.7306 26.231-8.7306 4.0808 0 8.0345 0.56231 11.784 1.6058l42.958-34.403v-23.21z"/>
  <path d="m425.87 174.67c-7.3114-5.4419-16.439-8.7306-26.231-8.7306-4.0808 0-8.0345 0.56231-11.784 1.6058l-42.958-34.403v-23.21z"/>
  <path d="m443.44 209.73c0-24.19-19.61-43.794-43.795-43.794-24.189 0-43.794 19.609-43.794 43.794 0 20.102 13.547 37.046 32.01 42.193l-42.964 34.399v23.209l83.271-66.516-0.027-0.0324c9.3632-8.0291 15.299-19.947 15.299-33.253zm-69.345 0c0-14.087 11.462-25.55 25.55-25.55 14.087 0 25.551 11.462 25.551 25.55s-11.464 25.55-25.551 25.55-25.55-11.462-25.55-25.55z"/>
  <path d="m301.94 251.93c18.463-5.1473 32.01-22.085 32.01-42.193 0-24.19-19.609-43.794-43.794-43.794-24.19 0-43.795 19.609-43.795 43.794 0 13.306 5.9353 25.224 15.299 33.253l-0.027 0.0324 83.266 66.521v-23.209zm-11.79-67.738c14.087 0 25.55 11.462 25.55 25.55 0 14.087-11.462 25.55-25.55 25.55s-25.551-11.462-25.551-25.55c0-14.087 11.464-25.55 25.551-25.55z"/>
 </g>
</svg>
