<?xml version="1.0" encoding="UTF-8"?>
<svg width="800px" height="800px" fill="#000000" version="1.1" viewBox="0 0 501.27 501.27" xml:space="preserve" xmlns="http://www.w3.org/2000/svg">
<g transform="matrix(-1 0 0 1 501.27 0)" fill="#fff">
	<g fill="#fff">
		<g fill="#fff">
			<path d="m359.5 181.88-40-40c-4.16-4.16-10.88-4.16-15.04 0l-301.33 301.23c-4.16 4.16-4.16 10.88 0 15.04l40 40c4.16 4.16 10.88 4.16 15.04 0l301.33-301.23c4.16-4.16 4.16-10.88 0-15.04zm-308.8 293.76-24.96-24.96 236.91-236.91 24.96 24.96zm251.95-252.05-24.96-24.96 34.24-34.24 24.96 24.96z"/>
			<path d="m498.16 117.67-38.187-38.293 24.533-48.213c2.667-5.227 0.64-11.627-4.587-14.4-3.093-1.6-6.72-1.6-9.707 0l-48.107 24.533-38.187-38.08c-4.16-4.267-10.88-4.267-15.147-0.107-2.453 2.347-3.52 5.76-3.093 9.067l7.787 54.507-49.173 25.493c-5.227 2.667-7.253 9.173-4.587 14.4 1.6 2.987 4.48 5.12 7.787 5.653l53.44 8.32 8.64 53.227c0.747 4.587 4.267 8.107 8.853 8.853 0.533 0.107 1.067 0.107 1.6 0.107 4.053 0 7.68-2.24 9.493-5.76l25.067-48.853 54.4 7.68c5.867 0.853 11.2-3.2 12.053-8.96 0.749-3.414-0.425-6.828-2.878-9.174zm-67.947-11.734c-4.48-0.747-8.96 1.6-10.987 5.653l-13.653 26.667-4.693-28.8c-0.747-4.587-4.373-8.107-8.853-8.853l-28.907-4.48 26.987-13.973c4.053-2.133 6.293-6.507 5.653-10.987l-4.267-30.293 21.013 21.12c3.307 3.307 8.32 4.053 12.373 2.027l25.707-13.12-13.12 25.813c-2.133 4.16-1.28 9.067 1.92 12.373l21.12 21.12z"/>
			<path d="m378.38 395.75-24.853-13.547-13.547-24.853c-3.733-6.827-14.933-6.827-18.667 0l-13.546 24.853-24.96 13.547c-5.12 2.88-7.04 9.28-4.267 14.507 0.96 1.813 2.453 3.2 4.267 4.267l24.853 13.547 13.547 24.853c2.88 5.12 9.28 7.04 14.507 4.267 1.813-0.96 3.2-2.453 4.267-4.267l13.547-24.853 24.853-13.547c5.12-2.88 7.04-9.28 4.267-14.507-0.961-1.814-2.454-3.307-4.268-4.267zm-37.76 15.36c-1.813 0.96-3.307 2.453-4.267 4.267l-5.653 10.453-5.76-10.453c-0.96-1.813-2.453-3.307-4.267-4.267l-10.453-5.76 10.453-5.76c1.813-0.96 3.307-2.453 4.267-4.267l5.76-10.453 5.76 10.453c0.96 1.813 2.453 3.307 4.267 4.267l10.453 5.76z"/>
			<path d="m37.469 148.07 45.547 24.96 24.853 45.547c2.88 5.12 9.28 7.04 14.507 4.267 1.813-0.96 3.2-2.453 4.267-4.267l24.96-45.547 45.547-24.96c5.12-2.88 7.04-9.28 4.267-14.507-0.96-1.813-2.453-3.2-4.267-4.267l-45.547-24.853-24.96-45.547c-3.733-6.827-14.933-6.827-18.667 0l-24.854 45.547-45.547 24.96c-5.12 2.88-7.04 9.28-4.267 14.507 0.961 1.706 2.454 3.2 4.161 4.16zm58.453-26.454c1.813-0.96 3.307-2.453 4.267-4.267l17.066-31.146 17.067 31.147c0.96 1.813 2.453 3.307 4.267 4.267l31.147 17.067-31.147 17.067c-1.813 0.96-3.307 2.453-4.267 4.267l-17.067 31.147-17.067-31.147c-0.96-1.813-2.453-3.307-4.267-4.267l-31.146-17.068z"/>
		</g>
	</g>
</g>
</svg>
