<?xml version="1.0" encoding="UTF-8"?>
<svg class="svg-icon" fill="currentColor" overflow="hidden" style="height:1em;vertical-align:middle;width:1em" version="1.1" viewBox="0 0 1024 1024" xmlns="http://www.w3.org/2000/svg">
 <path d="m416.64 729.73c75.775 0 147.35-26.862 204.3-75.723l276.87 277.58a26.178 26.178 0 0 0 37.165 0.0523 26.283 26.283 0 0 0 0.0523-37.165l-277.11-277.79c103.74-123.9 97.696-309.44-18.53-425.92-59.506-59.663-138.62-92.518-222.78-92.518-84.16 0-163.27 32.854-222.78 92.518-122.77 123.09-122.77 323.39 0 446.48a312.77 312.77 0 0 0 222.8 92.491zm-185.56-501.86c49.571-49.702 115.46-77.063 185.56-77.063s135.99 27.361 185.56 77.063c102.37 102.64 102.37 269.62 0 372.25-49.571 49.702-115.46 77.063-185.56 77.063s-135.99-27.361-185.56-77.063c-102.35-102.64-102.35-269.62 0-372.25z" fill="#fff" stroke-width="1.2834"/>
</svg>
