<?xml version="1.0" encoding="UTF-8"?>
<svg width="512" height="512" fill="none" version="1.1" viewBox="0 0 512 512" xmlns="http://www.w3.org/2000/svg">
 <path d="m117.27 113.77c19.621-18.469 42.939-32.854 68.62-42.092 41.09-14.781 85.947-15.569 127.59-2.2581 41.647 13.311 77.778 39.976 102.79 75.856a24.815 24.815 0 0 1-6.164 34.547 24.815 24.815 0 0 1-34.547-6.164c-18.791-26.952-45.924-46.972-77.191-56.965-31.265-9.992-64.891-9.3938-95.686 1.6829-30.794 11.077-57.023 32.005-74.646 59.558-17.625 27.555-25.648 60.182-22.821 92.855 2.8272 32.674 16.352 63.545 38.492 87.827 22.143 24.28 51.643 40.595 83.924 46.424l1e-3 -1e-3c32.283 5.8296 65.52 0.84681 94.591-14.159 29.067-15.006 52.327-39.185 66.198-68.818a24.815 24.815 0 0 1 32.995-11.956 24.815 24.815 0 0 1 11.955 32.995c-18.51 39.546-49.59 71.853-88.384 91.881l-1e-3 -1e-3c-38.795 20.026-83.155 26.667-126.17 18.895-43.015-7.7663-82.305-29.503-111.78-61.824l-1e-3 -1e-3c-29.473-32.323-47.496-73.444-51.266-116.99-3.7681-43.544 6.9347-87.098 30.459-123.88 8.8215-13.792 19.262-26.343 31.034-37.424zm314.66 81.714 24.813-0.1397 0.22027 24.816-24.813 0.1397zm23.563-140.52 1.2451 140.38-49.625 0.27871-1.2451-140.38zm-23.346 165.34-140.36 0.78783-0.44055-49.631 140.36-0.78854z" color="#000000" fill="#fff" stroke-linecap="round"/>
</svg>
